<svg width="40" height="40" viewBox="0 0 40 40" fill="none" xmlns="http://www.w3.org/2000/svg">
  <rect width="40" height="40" rx="8" fill="#fff"/>
  <rect x="7" y="4" width="26" height="32" rx="4" fill="#F7DF1E"/>
  <path d="M16.5 28.5l-1.2-1.7c-.3.2-.6.4-1 .4-.7 0-1.1-.4-1.1-1.2v-5.2h2.2v-2.1h-2.2v-2.2h-2.2v2.2h-1.1v2.1h1.1v5.2c0 2.1 1.2 3.2 3.2 3.2.7 0 1.3-.1 1.8-.4zm7.7-2.2c0-1.2-.6-2-2.1-2.7l-.7-.3c-.5-.2-.7-.4-.7-.7 0-.3.2-.5.7-.5.5 0 1 .2 1.5.5l1.1-1.6c-.6-.5-1.4-.8-2.3-.8-1.6 0-2.6.9-2.6 2.3 0 1.1.6 1.8 2.1 2.5l.7.3c.5.2.7.4.7.7 0 .3-.2.5-.7.5-.6 0-1.2-.2-1.7-.6l-1.1 1.6c.7.6 1.7.9 2.8.9 1.7 0 2.7-.9 2.7-2.3z" fill="#000"/>
</svg> 